<svg width="151" height="29" viewBox="0 0 151 29" fill="none" xmlns="http://www.w3.org/2000/svg">
<path d="M4.29691 17.501L0.387887 15.1403C0.147065 14.9952 0 14.7344 0 14.4532L0 4.00661C0 3.60653 0.436692 3.35993 0.779623 3.56671L5.07589 6.16181L5.07589 17.0611C5.07589 17.4612 4.6392 17.7078 4.29627 17.501H4.29691Z" fill="#297CF7"/>
<path d="M15.7858 6.22906L19.6948 8.58977C19.9357 8.7349 20.0827 8.99563 20.0827 9.27691V19.7235C20.0827 20.1235 19.646 20.3701 19.3031 20.1634L15.0068 17.5683L15.0068 6.66897C15.0068 6.26888 15.4435 6.02228 15.7865 6.22906H15.7858Z" fill="#297CF7"/>
<path d="M12.5693 15.7194L12.5693 5.02691C12.5693 4.73856 12.4145 4.47205 12.1634 4.32948L5.84424 0.731922C5.50195 0.536696 5.07617 0.784581 5.07617 1.17825L5.07617 6.15588L7.10743 7.31247C7.35788 7.45504 7.51329 7.72155 7.51329 8.00989L7.51329 18.7018C7.51329 18.9901 7.66806 19.2566 7.91916 19.3992L14.2383 22.9967C14.5806 23.192 15.0064 22.9441 15.0064 22.5504V17.5728L12.9751 16.4162C12.7247 16.2736 12.5693 16.0071 12.5693 15.7188V15.7194Z" fill="#297CF7"/>
<path d="M29.8463 22.927H25.8458V0.493044H36.0318C40.8325 0.493044 43.356 3.20112 43.356 7.87871C43.356 12.5255 40.7402 15.2644 36.0318 15.2644H29.8463V22.927ZM29.8463 4.12433V11.8793H35.601C37.8475 11.8793 39.0784 10.7099 39.0784 8.89424V6.9555C39.0784 5.13986 37.7859 4.12433 35.7856 4.12433H29.8463ZM48.7303 6.61699H54.3311V9.72513H49.2534V22.927H45.4375V9.87899C45.4375 9.01733 45.5606 8.43263 45.9606 7.72484C46.3607 7.01705 47.3455 6.61699 48.7303 6.61699ZM54.3448 14.772C54.3448 12.1562 55.0526 10.0944 56.4989 8.5865C57.9453 7.07859 59.9148 6.30926 62.3459 6.30926C64.7463 6.30926 66.685 7.04782 68.1621 8.55573C69.6393 10.0636 70.3778 12.1255 70.3778 14.772C70.3778 17.3262 69.67 19.388 68.2237 20.9267C66.8081 22.4654 64.8386 23.2347 62.3459 23.2347C59.9148 23.2347 57.9453 22.4654 56.4989 20.9575C55.0526 19.4496 54.3448 17.3878 54.3448 14.772ZM58.2222 13.5411V16.0953C58.2222 18.6495 59.9148 20.0958 62.3459 20.0958C64.8078 20.0958 66.4696 18.6495 66.4696 16.0953V13.5411C66.4696 11.0484 64.8078 9.44816 62.3459 9.44816C59.8532 9.44816 58.2222 11.0484 58.2222 13.5411ZM71.6326 17.8801H75.3869C75.4177 19.4804 76.6487 20.4343 78.6182 20.4343C80.4646 20.4343 81.5417 19.665 81.5417 18.3417C81.5417 17.357 80.9262 16.7415 79.6645 16.5261L76.4948 15.9414C73.4482 15.4182 71.9095 13.9103 71.9095 11.4177C71.9095 8.21722 74.4637 6.30926 78.4335 6.30926C82.4957 6.30926 84.9268 8.30954 85.0191 11.3869H81.2339C81.2032 9.87899 80.1261 9.07888 78.4028 9.07888C76.6794 9.07888 75.7255 9.81745 75.7255 11.0484C75.7255 12.0639 76.4948 12.7102 78.0335 12.9256L81.0185 13.4487C84.0036 13.9103 85.4807 15.449 85.4807 18.0032C85.4807 21.296 82.8034 23.2347 78.6182 23.2347C74.2176 23.2347 71.6326 21.0806 71.6326 17.8801ZM91.6525 28.0662H87.8366V6.61699H91.1909L91.6525 9.50971H91.8987C92.9142 7.44788 95.0068 6.30926 97.4995 6.30926C101.685 6.30926 104.177 9.41739 104.177 14.6797C104.177 20.0035 101.654 23.0809 97.4995 23.0809C94.7914 23.0809 92.7911 21.8807 91.8987 19.8804H91.6525V28.0662ZM96.1454 19.9727C98.6996 19.9727 100.238 18.5572 100.238 16.126V13.2641C100.238 10.8945 98.792 9.41739 96.1762 9.41739C93.4373 9.41739 91.6525 11.1715 91.6525 13.8796V15.5106C91.6525 18.2186 93.4373 19.9727 96.1454 19.9727ZM105.729 14.7412C105.729 9.44816 108.776 6.30926 113.577 6.30926C115.854 6.30926 117.67 6.98628 119.024 8.30954C120.408 9.6328 121.086 11.4792 121.086 13.7872C121.086 14.5258 121.055 15.1413 120.962 15.6337H109.638V16.5261C109.638 18.7726 111.238 20.2497 113.608 20.2497C115.546 20.2497 116.931 19.2957 117.393 17.9109H121.178C120.839 19.5111 120.008 20.8036 118.624 21.7884C117.239 22.7424 115.577 23.2347 113.608 23.2347C111.146 23.2347 109.207 22.4654 107.822 20.9575C106.437 19.4188 105.729 17.357 105.729 14.7412ZM109.638 12.7102V13.0179H117.27V12.5871C117.27 10.5868 115.762 9.26352 113.515 9.26352C111.207 9.26352 109.638 10.6483 109.638 12.7102ZM126.908 6.61699H132.509V9.72513H127.432V22.927H123.616V9.87899C123.616 9.01733 123.739 8.43263 124.139 7.72484C124.539 7.01705 125.524 6.61699 126.908 6.61699ZM132.523 14.772C132.523 12.1562 133.231 10.0944 134.677 8.5865C136.123 7.07859 138.093 6.30926 140.524 6.30926C142.924 6.30926 144.863 7.04782 146.34 8.55573C147.817 10.0636 148.556 12.1255 148.556 14.772C148.556 17.3262 147.848 19.388 146.402 20.9267C144.986 22.4654 143.017 23.2347 140.524 23.2347C138.093 23.2347 136.123 22.4654 134.677 20.9575C133.231 19.4496 132.523 17.3878 132.523 14.772ZM136.4 13.5411V16.0953C136.4 18.6495 138.093 20.0958 140.524 20.0958C142.986 20.0958 144.648 18.6495 144.648 16.0953V13.5411C144.648 11.0484 142.986 9.44816 140.524 9.44816C138.031 9.44816 136.4 11.0484 136.4 13.5411Z" fill="#202226"/>
</svg>
